<svg fill="none" xmlns="http://www.w3.org/2000/svg" viewBox="0 0 16 16">
  <g clip-path="url(#a)">
    <path fill-rule="evenodd" clip-rule="evenodd" d="M8 0a8 8 0 1 0 0 16A8 8 0 0 0 8 0M5.37 4.44a.8.8 0 0 1 .61-.22c1.43.11 2.76.65 3.82 1.53a.75.75 0 0 1-.93 1.16 4.56 4.56 0 0 0-2.94-1.2.75.75 0 0 1-.56-.65.78.78 0 0 0-.01-.62Zm5.91 1.94a.75.75 0 0 1 .18 1.05 5.48 5.48 0 0 1-4.04 2.28.75.75 0 0 1-.11-1.49 3.98 3.98 0 0 0 2.93-1.66.75.75 0 0 1 1.04-.18Zm-2.5 4.4a.75.75 0 0 1 .37 1c-.38.79-.96 1.45-1.68 1.93a.75.75 0 1 1-.82-1.25 3.11 3.11 0 0 0 1.13-1.3.75.75 0 0 1 .99-.37Z" fill="#666"/>
  </g>
  <defs>
    <clipPath id="a">
      <path fill="#fff" d="M0 0h16v16H0z"/>
    </clipPath>
  </defs>
</svg>
